<svg xmlns="http://www.w3.org/2000/svg" width="24" height="24" fill="none" id="money"><path fill="#000" d="M13.558 14.82c0-.453-.128-.813-.382-1.078-.25-.272-.675-.52-1.278-.747a15.837 15.837 0 0 1-1.561-.673 5.255 5.255 0 0 1-1.129-.772 3.23 3.23 0 0 1-.73-1.029c-.172-.393-.258-.86-.258-1.403 0-.935.299-1.702.897-2.3.597-.597 1.391-.945 2.382-1.045V4.66a.664.664 0 0 1 1.328 0v1.137c.98.138 1.746.548 2.3 1.228.372.455.619 1 .74 1.637.104.543-.358.995-.91.995h-.4c-.552 0-.96-.464-1.14-.986a1.534 1.534 0 0 0-.274-.5c-.272-.332-.637-.498-1.096-.498-.454 0-.805.13-1.054.39-.25.255-.374.609-.374 1.062 0 .421.122.759.365 1.013.244.255.695.515 1.353.78.665.266 1.21.518 1.636.756.426.232.785.498 1.079.797.293.293.517.63.672 1.012.155.377.232.817.232 1.32 0 .941-.293 1.705-.88 2.291-.586.587-1.394.933-2.423 1.038v.992a.66.66 0 0 1-1.32 0v-.984c-1.134-.122-2.014-.523-2.64-1.203-.426-.473-.706-1.052-.84-1.737-.104-.542.358-.995.91-.995h.4c.552 0 .962.465 1.153.984.075.206.18.385.311.536.316.348.767.522 1.353.522.487 0 .872-.127 1.154-.381.282-.26.424-.609.424-1.046Z"></path></svg>