<svg width="45" height="50" viewBox="0 0 45 50" fill="none" xmlns="http://www.w3.org/2000/svg">
<path d="M21.7403 49.8783C17.8143 49.0798 16.2114 44.1229 12.9349 41.7628C10.1619 39.7653 6.22122 39.7367 4.00686 37.1047C1.74169 34.4123 0.470387 30.7184 0.654015 27.1656C0.831684 23.728 3.83913 21.2475 4.99348 18.0155C6.16367 14.7393 5.35433 10.7361 7.49131 8.02259C9.67234 5.25313 13.373 4.47163 16.6283 3.24164C20.1919 1.89517 24.0594 -1.14729 27.5214 0.454473C31.175 2.14487 31.3148 7.50262 33.4137 11.0077C34.9028 13.4947 36.4941 15.7641 38.1219 18.1578C40.2606 21.3026 43.7202 23.6399 44.5479 27.3801C45.4413 31.4169 45.0834 36.0508 42.8437 39.493C40.6014 42.9393 36.2292 43.969 32.5891 45.7603C29.0611 47.4965 25.5781 50.6589 21.7403 49.8783Z" fill="#CFFAF5"/>
<path fill-rule="evenodd" clip-rule="evenodd" d="M7.46555 42.3662H35.9725C37.5068 42.3662 38.6398 40.8128 38.0611 39.3843C35.3761 32.7786 29.068 28.9944 21.7201 28.9944C14.37 28.9944 8.06197 32.7786 5.37691 39.3843C4.79821 40.8128 5.93122 42.3662 7.46555 42.3662ZM30.5891 15.6227C30.5891 10.7063 26.6091 6.70819 21.7201 6.70819C16.8289 6.70819 12.8512 10.7063 12.8512 15.6227C12.8512 20.539 16.8289 24.5372 21.7201 24.5372C26.6091 24.5372 30.5891 20.539 30.5891 15.6227ZM0.0954628 41.5549C1.70739 34.069 6.74938 28.5442 13.3856 26.037C9.86902 23.191 7.81808 18.5889 8.57195 13.55C9.44553 7.70427 14.2835 3.02649 20.1237 2.34453C28.1856 1.40182 35.0235 7.70884 35.0235 15.6227C35.0235 19.8348 33.0812 23.5877 30.0525 26.037C36.6909 28.5442 41.7307 34.069 43.3448 41.5549C43.9302 44.2761 41.7484 46.8234 38.9791 46.8234H4.4612C1.68966 46.8234 -0.492104 44.2761 0.0954628 41.5549Z" fill="#8791E8"/>
<path fill-rule="evenodd" clip-rule="evenodd" d="M7.49448 42.3662H35.9817C37.5149 42.3662 38.6471 40.8128 38.0688 39.3843C35.3856 32.7786 29.082 28.9944 21.7392 28.9944C14.3941 28.9944 8.0905 32.7786 5.40729 39.3843C4.82899 40.8128 5.96122 42.3662 7.49448 42.3662ZM30.6019 15.6227C30.6019 10.7063 26.6248 6.70819 21.7392 6.70819C16.8514 6.70819 12.8764 10.7063 12.8764 15.6227C12.8764 20.539 16.8514 24.5372 21.7392 24.5372C26.6248 24.5372 30.6019 20.539 30.6019 15.6227ZM0.129513 41.5549C1.74032 34.069 6.77881 28.5442 13.4104 26.037C9.89629 23.191 7.84678 18.5889 8.60011 13.55C9.47309 7.70427 14.3077 3.02649 20.1439 2.34453C28.2001 1.40182 35.0333 7.70884 35.0333 15.6227C35.0333 19.8348 33.0924 23.5877 30.0658 26.037C36.6995 28.5442 41.7358 34.069 43.3488 41.5549C43.9338 44.2761 41.7535 46.8234 38.9861 46.8234H4.49222C1.7226 46.8234 -0.457645 44.2761 0.129513 41.5549Z" fill="#8791E8"/>
</svg>
