<svg width="53" height="53" viewBox="0 0 53 53" fill="none" xmlns="http://www.w3.org/2000/svg">
<path d="M28.1813 52.3357C34.0167 53.8468 40.8863 51.1112 44.8543 46.5708C48.643 42.2355 46.2898 35.539 47.7331 29.9637C49.0416 24.9093 53.4888 20.762 52.8779 15.5766C52.214 9.94106 49.335 4.04583 44.359 1.32443C39.5032 -1.33125 33.512 0.583457 28.1813 2.06987C24.0082 3.23353 21.2646 6.77065 17.4512 8.82755C12.7368 11.3704 6.27706 11.0721 3.26985 15.5067C0.0404952 20.269 -1.28242 27.2591 1.55953 32.2625C4.39159 37.2485 12.2085 35.8509 16.7857 39.3022C21.5085 42.8632 22.4566 50.8532 28.1813 52.3357Z" fill="#E6E6FA"/>
<path fill-rule="evenodd" clip-rule="evenodd" d="M28.1823 6.78453C24.927 6.78453 22.0464 8.89374 21.0615 11.9985L19.3802 17.2981H20.8278H35.5367H36.9843L35.303 11.9985C34.318 8.89374 31.4374 6.78453 28.1823 6.78453ZM41.3933 17.2981L39.3085 10.7261C37.7695 5.87477 33.2686 2.5791 28.1823 2.5791C23.0959 2.5791 18.595 5.87477 17.056 10.7261L14.971 17.2981H10.002C7.18205 17.2981 5.1623 20.0224 5.98011 22.7231L8.34242 30.5242L11.2587 40.1546C12.0642 42.8146 14.5143 44.6334 17.2916 44.6334H23.9797H32.3848H39.0729C41.8501 44.6334 44.3002 42.8146 45.1056 40.1546L48.0219 30.5242L50.3844 22.7231C51.2022 20.0224 49.1825 17.2981 46.3624 17.2981H41.3933ZM16.5086 21.5035H10.002L11.9122 27.8117H19.8532L18.9936 21.5035H16.5086ZM23.2351 21.5035L24.0947 27.8117H32.2697L33.1293 21.5035H23.2351ZM37.3707 21.5035L36.5113 27.8117H44.4521L46.3624 21.5035H39.8558H37.3707ZM43.1788 32.0171H35.938L34.792 40.428H39.0729C39.9987 40.428 40.8153 39.8218 41.0838 38.935L43.1788 32.0171ZM30.5506 40.428L31.6967 32.0171H24.6678L25.8138 40.428H30.5506ZM21.5725 40.428L20.4263 32.0171H13.1857L15.2806 38.935C15.5491 39.8218 16.3658 40.428 17.2916 40.428H21.5725Z" fill="#FF69A1"/>
</svg>
