<svg width="46" height="50" viewBox="0 0 46 50" fill="none" xmlns="http://www.w3.org/2000/svg">
<path d="M21.7453 49.8783C17.8192 49.0798 16.2163 44.1229 12.9399 41.7628C10.1668 39.7653 6.22617 39.7367 4.0118 37.1047C1.74663 34.4123 0.47533 30.7184 0.658958 27.1656C0.836628 23.728 3.84407 21.2475 4.99842 18.0155C6.16861 14.7393 5.35927 10.7361 7.49625 8.02259C9.67728 5.25313 13.3779 4.47163 16.6333 3.24164C20.1969 1.89517 24.0644 -1.14729 27.5263 0.454473C31.1799 2.14487 31.3198 7.50262 33.4186 11.0077C34.9078 13.4947 36.4991 15.7641 38.1269 18.1578C40.2655 21.3026 43.7251 23.6399 44.5529 27.3801C45.4463 31.4169 45.0883 36.0508 42.8486 39.493C40.6063 42.9393 36.2341 43.969 32.594 45.7603C29.066 47.4965 25.583 50.6589 21.7453 49.8783Z" fill="#CFFAF5"/>
<path fill-rule="evenodd" clip-rule="evenodd" d="M7.46652 42.3657H35.9735C37.5078 42.3657 38.6408 40.8124 38.0621 39.3838C35.3771 32.7782 29.069 28.994 21.7211 28.994C14.371 28.994 8.06295 32.7782 5.37788 39.3838C4.79918 40.8124 5.9322 42.3657 7.46652 42.3657ZM30.59 15.6222C30.59 10.7059 26.6101 6.70773 21.7211 6.70773C16.8299 6.70773 12.8522 10.7059 12.8522 15.6222C12.8522 20.5386 16.8299 24.5367 21.7211 24.5367C26.6101 24.5367 30.59 20.5386 30.59 15.6222ZM0.0964394 41.5545C1.70837 34.0685 6.75035 28.5437 13.3865 26.0365C9.87 23.1906 7.81906 18.5884 8.57292 13.5495C9.44651 7.70381 14.2845 3.02603 20.1247 2.34407C28.1866 1.40136 35.0245 7.70839 35.0245 15.6222C35.0245 19.8343 33.0822 23.5873 30.0535 26.0365C36.6919 28.5437 41.7316 34.0685 43.3458 41.5545C43.9311 44.2756 41.7494 46.823 38.98 46.823H4.46217C1.69063 46.823 -0.491127 44.2756 0.0964394 41.5545Z" fill="#8791E8"/>
<path fill-rule="evenodd" clip-rule="evenodd" d="M7.49931 42.3657H35.9865C37.5197 42.3657 38.652 40.8123 38.0737 39.3838C35.3905 32.7781 29.0868 28.994 21.744 28.994C14.399 28.994 8.09532 32.7781 5.41211 39.3838C4.83382 40.8123 5.96605 42.3657 7.49931 42.3657ZM30.6068 15.6222C30.6068 10.7059 26.6296 6.7077 21.744 6.7077C16.8562 6.7077 12.8812 10.7059 12.8812 15.6222C12.8812 20.5385 16.8562 24.5367 21.744 24.5367C26.6296 24.5367 30.6068 20.5385 30.6068 15.6222ZM0.134335 41.5545C1.74514 34.0685 6.78363 28.5437 13.4152 26.0365C9.90111 23.1906 7.8516 18.5884 8.60493 13.5495C9.47792 7.70378 14.3125 3.026 20.1487 2.34404C28.205 1.40133 35.0382 7.70836 35.0382 15.6222C35.0382 19.8343 33.0972 23.5872 30.0706 26.0365C36.7044 28.5437 41.7406 34.0685 43.3537 41.5545C43.9386 44.2756 41.7584 46.823 38.991 46.823H4.49704C1.72742 46.823 -0.452824 44.2756 0.134335 41.5545Z" fill="#8791E8"/>
</svg>
