<svg width="59" height="58" viewBox="0 0 59 58" fill="none" xmlns="http://www.w3.org/2000/svg">
<path d="M43.5677 13.4242C49.742 18.1546 54.442 25.5532 53.4885 32.4284C52.535 39.3036 45.9926 45.6315 38.0539 48.6609C30.1033 51.658 20.8092 51.3005 14.6111 46.5055C8.36883 41.6901 5.28724 32.4134 7.03118 24.6978C8.78699 17.0144 15.4329 10.8683 22.5522 8.79999C29.7157 6.75212 37.4052 8.72607 43.5677 13.4242Z" fill="#0039CA"/>
<path d="M19.6719 27.8677C18.8434 27.8677 18.1719 28.5392 18.1719 29.3677C18.1719 30.1961 18.8434 30.8677 19.6719 30.8677L19.6719 27.8677ZM40.6173 30.4283C41.2031 29.8425 41.2031 28.8928 40.6173 28.307L31.0714 18.7611C30.4856 18.1753 29.5359 18.1753 28.9501 18.7611C28.3643 19.3469 28.3643 20.2966 28.9501 20.8824L37.4354 29.3677L28.9501 37.853C28.3643 38.4387 28.3643 39.3885 28.9501 39.9743C29.5359 40.5601 30.4856 40.5601 31.0714 39.9743L40.6173 30.4283ZM19.6719 30.8677L39.5567 30.8677L39.5567 27.8677L19.6719 27.8677L19.6719 30.8677Z" fill="white"/>
</svg>
