<svg width="53" height="53" viewBox="0 0 53 53" fill="none" xmlns="http://www.w3.org/2000/svg">
<path d="M28.1813 52.3357C34.0167 53.8468 40.8863 51.1112 44.8543 46.5708C48.643 42.2355 46.2898 35.539 47.7331 29.9637C49.0416 24.9093 53.4888 20.762 52.8779 15.5766C52.214 9.94106 49.335 4.04583 44.359 1.32443C39.5032 -1.33125 33.512 0.583457 28.1813 2.06987C24.0082 3.23353 21.2646 6.77065 17.4512 8.82755C12.7368 11.3704 6.27706 11.0721 3.26985 15.5067C0.0404952 20.269 -1.28242 27.2591 1.55953 32.2625C4.39159 37.2485 12.2085 35.8509 16.7857 39.3022C21.5085 42.8632 22.4566 50.8532 28.1813 52.3357Z" fill="#E6E6FA"/>
<path fill-rule="evenodd" clip-rule="evenodd" d="M28.1825 6.78484C24.9272 6.78484 22.0466 8.89405 21.0616 11.9989L19.3804 17.2984H20.828H35.5369H36.9844L35.3032 11.9989C34.3181 8.89405 31.4375 6.78484 28.1825 6.78484ZM41.3935 17.2984L39.3086 10.7264C37.7697 5.87508 33.2688 2.57941 28.1825 2.57941C23.096 2.57941 18.5951 5.87508 17.0561 10.7264L14.9712 17.2984H10.0022C7.18221 17.2984 5.16247 20.0227 5.98028 22.7234L8.34259 30.5245L11.2589 40.1549C12.0643 42.8149 14.5144 44.6337 17.2918 44.6337H23.9799H32.385H39.0731C41.8503 44.6337 44.3004 42.8149 45.1058 40.1549L48.0221 30.5245L50.3846 22.7234C51.2024 20.0227 49.1826 17.2984 46.3625 17.2984H41.3935ZM16.5087 21.5038H10.0022L11.9124 27.812H19.8534L18.9938 21.5038H16.5087ZM23.2352 21.5038L24.0949 27.812H32.2698L33.1295 21.5038H23.2352ZM37.3709 21.5038L36.5114 27.812H44.4523L46.3625 21.5038H39.856H37.3709ZM43.1789 32.0174H35.9382L34.7922 40.4283H39.0731C39.9989 40.4283 40.8154 39.8221 41.084 38.9353L43.1789 32.0174ZM30.5508 40.4283L31.6968 32.0174H24.6679L25.8139 40.4283H30.5508ZM21.5726 40.4283L20.4265 32.0174H13.1859L15.2808 38.9353C15.5493 39.8221 16.366 40.4283 17.2918 40.4283H21.5726Z" fill="#FF69A1"/>
</svg>
