<svg width="46" height="43" viewBox="0 0 46 43" fill="none" xmlns="http://www.w3.org/2000/svg">
<path fill-rule="evenodd" clip-rule="evenodd" d="M23.1823 4.78453C19.927 4.78453 17.0464 6.89374 16.0615 9.99855L14.3802 15.2981H15.8278H30.5367H31.9843L30.303 9.99855C29.318 6.89374 26.4374 4.78453 23.1823 4.78453ZM36.3933 15.2981L34.3085 8.72607C32.7695 3.87477 28.2686 0.579102 23.1823 0.579102C18.0959 0.579102 13.595 3.87477 12.056 8.72607L9.97104 15.2981H5.00202C2.18205 15.2981 0.162299 18.0224 0.980107 20.7231L3.34242 28.5242L6.25871 38.1546C7.06417 40.8146 9.51425 42.6334 12.2916 42.6334H18.9797H27.3848H34.0729C36.8501 42.6334 39.3002 40.8146 40.1056 38.1546L43.0219 28.5242L45.3844 20.7231C46.2022 18.0224 44.1825 15.2981 41.3624 15.2981H36.3933ZM11.5086 19.5035H5.00202L6.91225 25.8117H14.8532L13.9936 19.5035H11.5086ZM18.2351 19.5035L19.0947 25.8117H27.2697L28.1293 19.5035H18.2351ZM32.3707 19.5035L31.5113 25.8117H39.4521L41.3624 19.5035H34.8558H32.3707ZM38.1788 30.0171H30.938L29.792 38.428H34.0729C34.9987 38.428 35.8153 37.8218 36.0838 36.935L38.1788 30.0171ZM25.5506 38.428L26.6967 30.0171H19.6678L20.8138 38.428H25.5506ZM16.5725 38.428L15.4263 30.0171H8.18573L10.2806 36.935C10.5491 37.8218 11.3658 38.428 12.2916 38.428H16.5725Z" fill="#FF69A1"/>
</svg>
