<svg width="15" height="15" viewBox="0 0 15 15" fill="none" xmlns="http://www.w3.org/2000/svg">
<g id="lock (1) 1">
<g id="Group">
<path id="Vector" d="M11.875 5.265V4.37499C11.875 1.95876 9.91625 0 7.49999 0C5.08373 0 3.125 1.95876 3.125 4.37499V5.265C1.98752 5.76144 1.25164 6.88392 1.25 8.12499V11.875C1.25205 13.6 2.64995 14.9979 4.37498 15H10.625C12.35 14.9979 13.7479 13.6 13.75 11.875V8.12499C13.7484 6.88392 13.0125 5.76144 11.875 5.265ZM8.12498 10.625C8.12498 10.9702 7.84517 11.25 7.49999 11.25C7.15481 11.25 6.875 10.9702 6.875 10.625V9.375C6.875 9.02982 7.15481 8.75001 7.49999 8.75001C7.84517 8.75001 8.12498 9.02982 8.12498 9.375V10.625ZM10.625 5.00001H4.37498V4.37502C4.37498 2.64914 5.77408 1.25001 7.49999 1.25001C9.2259 1.25001 10.625 2.64911 10.625 4.37502V5.00001Z" fill="#2D2D2D"/>
</g>
</g>
</svg>
