<svg width="58" height="58" viewBox="0 0 58 58" fill="none" xmlns="http://www.w3.org/2000/svg">
<g id="Group 90">
<path id="Vector" d="M43.0448 13.4242C49.2192 18.1547 53.9192 25.5533 52.9657 32.4286C52.0122 39.3038 45.4697 45.6319 37.5309 48.6613C29.5802 51.6584 20.286 51.3009 14.0878 46.5058C7.84549 41.6904 4.76386 32.4136 6.50782 24.6978C8.26365 17.0144 14.9097 10.8682 22.029 8.79989C29.1926 6.752 36.8822 8.72597 43.0448 13.4242Z" fill="#F26097"/>
<path id="Arrow 1" d="M19.1486 27.8677C18.3201 27.8677 17.6486 28.5392 17.6486 29.3677C17.6486 30.1961 18.3201 30.8677 19.1486 30.8677L19.1486 27.8677ZM40.0943 30.4283C40.68 29.8425 40.68 28.8928 40.0943 28.307L30.5483 18.7611C29.9625 18.1753 29.0128 18.1753 28.427 18.7611C27.8412 19.3469 27.8412 20.2966 28.427 20.8824L36.9123 29.3677L28.427 37.853C27.8412 38.4387 27.8412 39.3885 28.427 39.9743C29.0128 40.5601 29.9625 40.5601 30.5483 39.9743L40.0943 30.4283ZM19.1486 30.8677L39.0336 30.8677L39.0336 27.8677L19.1486 27.8677L19.1486 30.8677Z" fill="white"/>
</g>
</svg>
