<svg width="79" height="77" viewBox="0 0 79 77" fill="none" xmlns="http://www.w3.org/2000/svg">
<path d="M20.241 16.9104C11.8573 23.3335 5.47563 33.3794 6.77033 42.7147C8.06502 52.0499 16.9484 60.6421 27.7277 64.7555C38.5232 68.825 51.143 68.3396 59.5589 61.8288C68.0347 55.2903 72.219 42.6943 69.851 32.2178C67.4669 21.7852 58.443 13.4399 48.7762 10.6315C39.0495 7.85088 28.6085 10.5311 20.241 16.9104Z" fill="#F26097"/>
<path d="M52.6874 37.0586C53.5158 37.0586 54.1874 37.7302 54.1874 38.5586C54.1874 39.387 53.5158 40.0586 52.6874 40.0586L52.6874 37.0586ZM24.6267 39.6193C24.0409 39.0335 24.0409 38.0837 24.6267 37.4979L34.1726 27.952C34.7584 27.3662 35.7082 27.3662 36.294 27.952C36.8798 28.5378 36.8798 29.4875 36.294 30.0733L27.8087 38.5586L36.294 47.0439C36.8797 47.6297 36.8797 48.5794 36.294 49.1652C35.7082 49.751 34.7584 49.751 34.1726 49.1652L24.6267 39.6193ZM52.6874 40.0586L25.6874 40.0586L25.6874 37.0586L52.6874 37.0586L52.6874 40.0586Z" fill="white"/>
</svg>
