<svg width="36" height="44" viewBox="0 0 36 44" fill="none" xmlns="http://www.w3.org/2000/svg">
<g filter="url(#filter0_dd_3_416)">
<circle cx="18" cy="22.0001" r="14" fill="#0039CA"/>
</g>
<path d="M23.8598 27.1534L20.8777 24.1714C21.6904 23.1775 22.0899 21.9093 21.9937 20.629C21.8975 19.3488 21.313 18.1546 20.3609 17.2933C19.4089 16.432 18.1622 15.9695 16.8788 16.0016C15.5954 16.0337 14.3734 16.5579 13.4656 17.4657C12.5578 18.3735 12.0337 19.5955 12.0016 20.8789C11.9695 22.1623 12.4319 23.409 13.2932 24.361C14.1545 25.313 15.3488 25.8976 16.629 25.9938C17.9092 26.09 19.1774 25.6904 20.1713 24.8778L23.1533 27.8598C23.2476 27.9508 23.3738 28.0012 23.5048 28C23.6357 27.9989 23.761 27.9464 23.8537 27.8537C23.9463 27.7611 23.9988 27.6358 24 27.5048C24.0011 27.3738 23.9508 27.2476 23.8598 27.1534ZM17.0119 25.0087C16.2214 25.0087 15.4487 24.7743 14.7914 24.3351C14.1342 23.8959 13.6219 23.2717 13.3194 22.5414C13.0169 21.8111 12.9378 21.0075 13.092 20.2322C13.2462 19.4569 13.6268 18.7448 14.1858 18.1858C14.7447 17.6269 15.4569 17.2462 16.2322 17.092C17.0075 16.9378 17.8111 17.017 18.5414 17.3195C19.2717 17.622 19.8959 18.1342 20.335 18.7915C20.7742 19.4487 21.0086 20.2215 21.0086 21.0119C21.0074 22.0716 20.5859 23.0875 19.8367 23.8367C19.0874 24.586 18.0715 25.0075 17.0119 25.0087Z" fill="white"/>
<defs>
<filter id="filter0_dd_3_416" x="0" y="6.10352e-05" width="36" height="44" filterUnits="userSpaceOnUse" color-interpolation-filters="sRGB">
<feFlood flood-opacity="0" result="BackgroundImageFix"/>
<feColorMatrix in="SourceAlpha" type="matrix" values="0 0 0 0 0 0 0 0 0 0 0 0 0 0 0 0 0 0 127 0" result="hardAlpha"/>
<feOffset dy="4"/>
<feGaussianBlur stdDeviation="2"/>
<feComposite in2="hardAlpha" operator="out"/>
<feColorMatrix type="matrix" values="0 0 0 0 0.813715 0 0 0 0 0.845255 0 0 0 0 0.908333 0 0 0 1 0"/>
<feBlend mode="normal" in2="BackgroundImageFix" result="effect1_dropShadow_3_416"/>
<feColorMatrix in="SourceAlpha" type="matrix" values="0 0 0 0 0 0 0 0 0 0 0 0 0 0 0 0 0 0 127 0" result="hardAlpha"/>
<feOffset dy="-4"/>
<feGaussianBlur stdDeviation="2"/>
<feComposite in2="hardAlpha" operator="out"/>
<feColorMatrix type="matrix" values="0 0 0 0 1 0 0 0 0 1 0 0 0 0 1 0 0 0 1 0"/>
<feBlend mode="normal" in2="effect1_dropShadow_3_416" result="effect2_dropShadow_3_416"/>
<feBlend mode="normal" in="SourceGraphic" in2="effect2_dropShadow_3_416" result="shape"/>
</filter>
</defs>
</svg>
