<svg width="80" height="77" viewBox="0 0 80 77" fill="none" xmlns="http://www.w3.org/2000/svg">
<path d="M59.1339 16.9104C67.5175 23.3335 73.8992 33.3794 72.6045 42.7147C71.3098 52.0499 62.4264 60.6421 51.6471 64.7555C40.8517 68.825 28.2319 68.3396 19.816 61.8288C11.3401 55.2903 7.15589 42.6943 9.52385 32.2178C11.9079 21.7852 20.9319 13.4399 30.5986 10.6315C40.3253 7.85088 50.7664 10.5311 59.1339 16.9104Z" fill="#F26097"/>
<path d="M26.6875 37.0586C25.8591 37.0586 25.1875 37.7302 25.1875 38.5586C25.1875 39.387 25.8591 40.0586 26.6875 40.0586L26.6875 37.0586ZM54.7482 39.6193C55.3339 39.0335 55.3339 38.0837 54.7482 37.4979L45.2022 27.952C44.6164 27.3662 43.6667 27.3662 43.0809 27.952C42.4951 28.5378 42.4951 29.4875 43.0809 30.0733L51.5662 38.5586L43.0809 47.0439C42.4951 47.6297 42.4951 48.5794 43.0809 49.1652C43.6667 49.751 44.6164 49.751 45.2022 49.1652L54.7482 39.6193ZM26.6875 40.0586L53.6875 40.0586L53.6875 37.0586L26.6875 37.0586L26.6875 40.0586Z" fill="white"/>
</svg>
